%TF.GenerationSoftware,KiCad,Pcbnew,(6.0.7)*%
%TF.CreationDate,2023-01-27T00:41:06-05:00*%
%TF.ProjectId,GettingToBlinky5.0,47657474-696e-4675-946f-426c696e6b79,rev?*%
%TF.SameCoordinates,Original*%
%TF.FileFunction,Legend,Top*%
%TF.FilePolarity,Positive*%
%FSLAX46Y46*%
G04 Gerber Fmt 4.6, Leading zero omitted, Abs format (unit mm)*
G04 Created by KiCad (PCBNEW (6.0.7)) date 2023-01-27 00:41:06*
%MOMM*%
%LPD*%
G01*
G04 APERTURE LIST*
%ADD10C,0.300000*%
%ADD11C,0.150000*%
%ADD12C,0.120000*%
G04 APERTURE END LIST*
D10*
X139564285Y-100478571D02*
X139564285Y-98978571D01*
X140064285Y-100050000D01*
X140564285Y-98978571D01*
X140564285Y-100478571D01*
X141921428Y-100478571D02*
X141921428Y-99692857D01*
X141850000Y-99550000D01*
X141707142Y-99478571D01*
X141421428Y-99478571D01*
X141278571Y-99550000D01*
X141921428Y-100407142D02*
X141778571Y-100478571D01*
X141421428Y-100478571D01*
X141278571Y-100407142D01*
X141207142Y-100264285D01*
X141207142Y-100121428D01*
X141278571Y-99978571D01*
X141421428Y-99907142D01*
X141778571Y-99907142D01*
X141921428Y-99835714D01*
X143278571Y-100478571D02*
X143278571Y-98978571D01*
X143278571Y-100407142D02*
X143135714Y-100478571D01*
X142850000Y-100478571D01*
X142707142Y-100407142D01*
X142635714Y-100335714D01*
X142564285Y-100192857D01*
X142564285Y-99764285D01*
X142635714Y-99621428D01*
X142707142Y-99550000D01*
X142850000Y-99478571D01*
X143135714Y-99478571D01*
X143278571Y-99550000D01*
X144564285Y-100407142D02*
X144421428Y-100478571D01*
X144135714Y-100478571D01*
X143992857Y-100407142D01*
X143921428Y-100264285D01*
X143921428Y-99692857D01*
X143992857Y-99550000D01*
X144135714Y-99478571D01*
X144421428Y-99478571D01*
X144564285Y-99550000D01*
X144635714Y-99692857D01*
X144635714Y-99835714D01*
X143921428Y-99978571D01*
X146921428Y-99692857D02*
X147135714Y-99764285D01*
X147207142Y-99835714D01*
X147278571Y-99978571D01*
X147278571Y-100192857D01*
X147207142Y-100335714D01*
X147135714Y-100407142D01*
X146992857Y-100478571D01*
X146421428Y-100478571D01*
X146421428Y-98978571D01*
X146921428Y-98978571D01*
X147064285Y-99050000D01*
X147135714Y-99121428D01*
X147207142Y-99264285D01*
X147207142Y-99407142D01*
X147135714Y-99550000D01*
X147064285Y-99621428D01*
X146921428Y-99692857D01*
X146421428Y-99692857D01*
X147778571Y-99478571D02*
X148135714Y-100478571D01*
X148492857Y-99478571D02*
X148135714Y-100478571D01*
X147992857Y-100835714D01*
X147921428Y-100907142D01*
X147778571Y-100978571D01*
X150207142Y-100478571D02*
X150207142Y-98978571D01*
X150707142Y-100050000D01*
X151207142Y-98978571D01*
X151207142Y-100478571D01*
X151921428Y-100478571D02*
X151921428Y-99478571D01*
X151921428Y-98978571D02*
X151850000Y-99050000D01*
X151921428Y-99121428D01*
X151992857Y-99050000D01*
X151921428Y-98978571D01*
X151921428Y-99121428D01*
X152635714Y-99478571D02*
X152635714Y-100478571D01*
X152635714Y-99621428D02*
X152707142Y-99550000D01*
X152850000Y-99478571D01*
X153064285Y-99478571D01*
X153207142Y-99550000D01*
X153278571Y-99692857D01*
X153278571Y-100478571D01*
X153992857Y-100478571D02*
X153992857Y-98978571D01*
X154635714Y-100478571D02*
X154635714Y-99692857D01*
X154564285Y-99550000D01*
X154421428Y-99478571D01*
X154207142Y-99478571D01*
X154064285Y-99550000D01*
X153992857Y-99621428D01*
X135971428Y-77250000D02*
X135828571Y-77178571D01*
X135614285Y-77178571D01*
X135400000Y-77250000D01*
X135257142Y-77392857D01*
X135185714Y-77535714D01*
X135114285Y-77821428D01*
X135114285Y-78035714D01*
X135185714Y-78321428D01*
X135257142Y-78464285D01*
X135400000Y-78607142D01*
X135614285Y-78678571D01*
X135757142Y-78678571D01*
X135971428Y-78607142D01*
X136042857Y-78535714D01*
X136042857Y-78035714D01*
X135757142Y-78035714D01*
X137257142Y-78607142D02*
X137114285Y-78678571D01*
X136828571Y-78678571D01*
X136685714Y-78607142D01*
X136614285Y-78464285D01*
X136614285Y-77892857D01*
X136685714Y-77750000D01*
X136828571Y-77678571D01*
X137114285Y-77678571D01*
X137257142Y-77750000D01*
X137328571Y-77892857D01*
X137328571Y-78035714D01*
X136614285Y-78178571D01*
X137757142Y-77678571D02*
X138328571Y-77678571D01*
X137971428Y-77178571D02*
X137971428Y-78464285D01*
X138042857Y-78607142D01*
X138185714Y-78678571D01*
X138328571Y-78678571D01*
X138614285Y-77678571D02*
X139185714Y-77678571D01*
X138828571Y-77178571D02*
X138828571Y-78464285D01*
X138900000Y-78607142D01*
X139042857Y-78678571D01*
X139185714Y-78678571D01*
X139685714Y-78678571D02*
X139685714Y-77678571D01*
X139685714Y-77178571D02*
X139614285Y-77250000D01*
X139685714Y-77321428D01*
X139757142Y-77250000D01*
X139685714Y-77178571D01*
X139685714Y-77321428D01*
X140400000Y-77678571D02*
X140400000Y-78678571D01*
X140400000Y-77821428D02*
X140471428Y-77750000D01*
X140614285Y-77678571D01*
X140828571Y-77678571D01*
X140971428Y-77750000D01*
X141042857Y-77892857D01*
X141042857Y-78678571D01*
X142400000Y-77678571D02*
X142400000Y-78892857D01*
X142328571Y-79035714D01*
X142257142Y-79107142D01*
X142114285Y-79178571D01*
X141900000Y-79178571D01*
X141757142Y-79107142D01*
X142400000Y-78607142D02*
X142257142Y-78678571D01*
X141971428Y-78678571D01*
X141828571Y-78607142D01*
X141757142Y-78535714D01*
X141685714Y-78392857D01*
X141685714Y-77964285D01*
X141757142Y-77821428D01*
X141828571Y-77750000D01*
X141971428Y-77678571D01*
X142257142Y-77678571D01*
X142400000Y-77750000D01*
X144042857Y-77178571D02*
X144900000Y-77178571D01*
X144471428Y-78678571D02*
X144471428Y-77178571D01*
X145614285Y-78678571D02*
X145471428Y-78607142D01*
X145400000Y-78535714D01*
X145328571Y-78392857D01*
X145328571Y-77964285D01*
X145400000Y-77821428D01*
X145471428Y-77750000D01*
X145614285Y-77678571D01*
X145828571Y-77678571D01*
X145971428Y-77750000D01*
X146042857Y-77821428D01*
X146114285Y-77964285D01*
X146114285Y-78392857D01*
X146042857Y-78535714D01*
X145971428Y-78607142D01*
X145828571Y-78678571D01*
X145614285Y-78678571D01*
X148400000Y-77892857D02*
X148614285Y-77964285D01*
X148685714Y-78035714D01*
X148757142Y-78178571D01*
X148757142Y-78392857D01*
X148685714Y-78535714D01*
X148614285Y-78607142D01*
X148471428Y-78678571D01*
X147900000Y-78678571D01*
X147900000Y-77178571D01*
X148400000Y-77178571D01*
X148542857Y-77250000D01*
X148614285Y-77321428D01*
X148685714Y-77464285D01*
X148685714Y-77607142D01*
X148614285Y-77750000D01*
X148542857Y-77821428D01*
X148400000Y-77892857D01*
X147900000Y-77892857D01*
X149614285Y-78678571D02*
X149471428Y-78607142D01*
X149400000Y-78464285D01*
X149400000Y-77178571D01*
X150185714Y-78678571D02*
X150185714Y-77678571D01*
X150185714Y-77178571D02*
X150114285Y-77250000D01*
X150185714Y-77321428D01*
X150257142Y-77250000D01*
X150185714Y-77178571D01*
X150185714Y-77321428D01*
X150900000Y-77678571D02*
X150900000Y-78678571D01*
X150900000Y-77821428D02*
X150971428Y-77750000D01*
X151114285Y-77678571D01*
X151328571Y-77678571D01*
X151471428Y-77750000D01*
X151542857Y-77892857D01*
X151542857Y-78678571D01*
X152257142Y-78678571D02*
X152257142Y-77178571D01*
X152400000Y-78107142D02*
X152828571Y-78678571D01*
X152828571Y-77678571D02*
X152257142Y-78250000D01*
X153328571Y-77678571D02*
X153685714Y-78678571D01*
X154042857Y-77678571D02*
X153685714Y-78678571D01*
X153542857Y-79035714D01*
X153471428Y-79107142D01*
X153328571Y-79178571D01*
X156471428Y-77178571D02*
X155757142Y-77178571D01*
X155685714Y-77892857D01*
X155757142Y-77821428D01*
X155900000Y-77750000D01*
X156257142Y-77750000D01*
X156400000Y-77821428D01*
X156471428Y-77892857D01*
X156542857Y-78035714D01*
X156542857Y-78392857D01*
X156471428Y-78535714D01*
X156400000Y-78607142D01*
X156257142Y-78678571D01*
X155900000Y-78678571D01*
X155757142Y-78607142D01*
X155685714Y-78535714D01*
X157185714Y-78535714D02*
X157257142Y-78607142D01*
X157185714Y-78678571D01*
X157114285Y-78607142D01*
X157185714Y-78535714D01*
X157185714Y-78678571D01*
X158185714Y-77178571D02*
X158328571Y-77178571D01*
X158471428Y-77250000D01*
X158542857Y-77321428D01*
X158614285Y-77464285D01*
X158685714Y-77750000D01*
X158685714Y-78107142D01*
X158614285Y-78392857D01*
X158542857Y-78535714D01*
X158471428Y-78607142D01*
X158328571Y-78678571D01*
X158185714Y-78678571D01*
X158042857Y-78607142D01*
X157971428Y-78535714D01*
X157900000Y-78392857D01*
X157828571Y-78107142D01*
X157828571Y-77750000D01*
X157900000Y-77464285D01*
X157971428Y-77321428D01*
X158042857Y-77250000D01*
X158185714Y-77178571D01*
D11*
%TO.C,U1*%
X146238095Y-83952380D02*
X146238095Y-84761904D01*
X146285714Y-84857142D01*
X146333333Y-84904761D01*
X146428571Y-84952380D01*
X146619047Y-84952380D01*
X146714285Y-84904761D01*
X146761904Y-84857142D01*
X146809523Y-84761904D01*
X146809523Y-83952380D01*
X147809523Y-84952380D02*
X147238095Y-84952380D01*
X147523809Y-84952380D02*
X147523809Y-83952380D01*
X147428571Y-84095238D01*
X147333333Y-84190476D01*
X147238095Y-84238095D01*
%TO.C,R3*%
X138652380Y-90166666D02*
X138176190Y-90500000D01*
X138652380Y-90738095D02*
X137652380Y-90738095D01*
X137652380Y-90357142D01*
X137700000Y-90261904D01*
X137747619Y-90214285D01*
X137842857Y-90166666D01*
X137985714Y-90166666D01*
X138080952Y-90214285D01*
X138128571Y-90261904D01*
X138176190Y-90357142D01*
X138176190Y-90738095D01*
X137652380Y-89833333D02*
X137652380Y-89214285D01*
X138033333Y-89547619D01*
X138033333Y-89404761D01*
X138080952Y-89309523D01*
X138128571Y-89261904D01*
X138223809Y-89214285D01*
X138461904Y-89214285D01*
X138557142Y-89261904D01*
X138604761Y-89309523D01*
X138652380Y-89404761D01*
X138652380Y-89690476D01*
X138604761Y-89785714D01*
X138557142Y-89833333D01*
%TO.C,R2*%
X156252380Y-91166666D02*
X155776190Y-91500000D01*
X156252380Y-91738095D02*
X155252380Y-91738095D01*
X155252380Y-91357142D01*
X155300000Y-91261904D01*
X155347619Y-91214285D01*
X155442857Y-91166666D01*
X155585714Y-91166666D01*
X155680952Y-91214285D01*
X155728571Y-91261904D01*
X155776190Y-91357142D01*
X155776190Y-91738095D01*
X155347619Y-90785714D02*
X155300000Y-90738095D01*
X155252380Y-90642857D01*
X155252380Y-90404761D01*
X155300000Y-90309523D01*
X155347619Y-90261904D01*
X155442857Y-90214285D01*
X155538095Y-90214285D01*
X155680952Y-90261904D01*
X156252380Y-90833333D01*
X156252380Y-90214285D01*
%TO.C,R1*%
X156252380Y-87166666D02*
X155776190Y-87500000D01*
X156252380Y-87738095D02*
X155252380Y-87738095D01*
X155252380Y-87357142D01*
X155300000Y-87261904D01*
X155347619Y-87214285D01*
X155442857Y-87166666D01*
X155585714Y-87166666D01*
X155680952Y-87214285D01*
X155728571Y-87261904D01*
X155776190Y-87357142D01*
X155776190Y-87738095D01*
X156252380Y-86214285D02*
X156252380Y-86785714D01*
X156252380Y-86500000D02*
X155252380Y-86500000D01*
X155395238Y-86595238D01*
X155490476Y-86690476D01*
X155538095Y-86785714D01*
%TO.C,D1*%
X138652380Y-94738095D02*
X137652380Y-94738095D01*
X137652380Y-94500000D01*
X137700000Y-94357142D01*
X137795238Y-94261904D01*
X137890476Y-94214285D01*
X138080952Y-94166666D01*
X138223809Y-94166666D01*
X138414285Y-94214285D01*
X138509523Y-94261904D01*
X138604761Y-94357142D01*
X138652380Y-94500000D01*
X138652380Y-94738095D01*
X138652380Y-93214285D02*
X138652380Y-93785714D01*
X138652380Y-93500000D02*
X137652380Y-93500000D01*
X137795238Y-93595238D01*
X137890476Y-93690476D01*
X137938095Y-93785714D01*
%TO.C,C1*%
X138557142Y-86166666D02*
X138604761Y-86214285D01*
X138652380Y-86357142D01*
X138652380Y-86452380D01*
X138604761Y-86595238D01*
X138509523Y-86690476D01*
X138414285Y-86738095D01*
X138223809Y-86785714D01*
X138080952Y-86785714D01*
X137890476Y-86738095D01*
X137795238Y-86690476D01*
X137700000Y-86595238D01*
X137652380Y-86452380D01*
X137652380Y-86357142D01*
X137700000Y-86214285D01*
X137747619Y-86166666D01*
X138652380Y-85214285D02*
X138652380Y-85785714D01*
X138652380Y-85500000D02*
X137652380Y-85500000D01*
X137795238Y-85595238D01*
X137890476Y-85690476D01*
X137938095Y-85785714D01*
D12*
%TO.C,U1*%
X147000000Y-85440000D02*
X148950000Y-85440000D01*
X147000000Y-90560000D02*
X148950000Y-90560000D01*
X147000000Y-85440000D02*
X143550000Y-85440000D01*
X147000000Y-90560000D02*
X145050000Y-90560000D01*
%TO.C,R3*%
X140735000Y-89772936D02*
X140735000Y-90227064D01*
X139265000Y-89772936D02*
X139265000Y-90227064D01*
%TO.C,R2*%
X154735000Y-90772936D02*
X154735000Y-91227064D01*
X153265000Y-90772936D02*
X153265000Y-91227064D01*
%TO.C,R1*%
X154735000Y-86772936D02*
X154735000Y-87227064D01*
X153265000Y-86772936D02*
X153265000Y-87227064D01*
%TO.C,D1*%
X140960000Y-95860000D02*
X140960000Y-93000000D01*
X139040000Y-93000000D02*
X139040000Y-95860000D01*
X139040000Y-95860000D02*
X140960000Y-95860000D01*
%TO.C,C1*%
X139265000Y-86261252D02*
X139265000Y-85738748D01*
X140735000Y-86261252D02*
X140735000Y-85738748D01*
%TD*%
M02*
