%TF.GenerationSoftware,KiCad,Pcbnew,(6.0.7)*%
%TF.CreationDate,2023-01-27T00:41:06-05:00*%
%TF.ProjectId,GettingToBlinky5.0,47657474-696e-4675-946f-426c696e6b79,rev?*%
%TF.SameCoordinates,Original*%
%TF.FileFunction,Copper,L1,Top*%
%TF.FilePolarity,Positive*%
%FSLAX46Y46*%
G04 Gerber Fmt 4.6, Leading zero omitted, Abs format (unit mm)*
G04 Created by KiCad (PCBNEW (6.0.7)) date 2023-01-27 00:41:06*
%MOMM*%
%LPD*%
G01*
G04 APERTURE LIST*
G04 Aperture macros list*
%AMRoundRect*
0 Rectangle with rounded corners*
0 $1 Rounding radius*
0 $2 $3 $4 $5 $6 $7 $8 $9 X,Y pos of 4 corners*
0 Add a 4 corners polygon primitive as box body*
4,1,4,$2,$3,$4,$5,$6,$7,$8,$9,$2,$3,0*
0 Add four circle primitives for the rounded corners*
1,1,$1+$1,$2,$3*
1,1,$1+$1,$4,$5*
1,1,$1+$1,$6,$7*
1,1,$1+$1,$8,$9*
0 Add four rect primitives between the rounded corners*
20,1,$1+$1,$2,$3,$4,$5,0*
20,1,$1+$1,$4,$5,$6,$7,0*
20,1,$1+$1,$6,$7,$8,$9,0*
20,1,$1+$1,$8,$9,$2,$3,0*%
G04 Aperture macros list end*
%TA.AperFunction,SMDPad,CuDef*%
%ADD10RoundRect,0.150000X-0.825000X-0.150000X0.825000X-0.150000X0.825000X0.150000X-0.825000X0.150000X0*%
%TD*%
%TA.AperFunction,SMDPad,CuDef*%
%ADD11RoundRect,0.250000X-0.450000X0.350000X-0.450000X-0.350000X0.450000X-0.350000X0.450000X0.350000X0*%
%TD*%
%TA.AperFunction,SMDPad,CuDef*%
%ADD12RoundRect,0.250000X0.450000X-0.325000X0.450000X0.325000X-0.450000X0.325000X-0.450000X-0.325000X0*%
%TD*%
%TA.AperFunction,SMDPad,CuDef*%
%ADD13RoundRect,0.250000X0.475000X-0.337500X0.475000X0.337500X-0.475000X0.337500X-0.475000X-0.337500X0*%
%TD*%
%TA.AperFunction,ViaPad*%
%ADD14C,0.800000*%
%TD*%
%TA.AperFunction,Conductor*%
%ADD15C,0.250000*%
%TD*%
G04 APERTURE END LIST*
D10*
%TO.P,U1,1,GND*%
%TO.N,GND*%
X144525000Y-86095000D03*
%TO.P,U1,2,~{TRIG}*%
%TO.N,/THR*%
X144525000Y-87365000D03*
%TO.P,U1,3,OUT*%
%TO.N,Net-(U1-Pad3)*%
X144525000Y-88635000D03*
%TO.P,U1,4,~{RST}*%
%TO.N,/VDD*%
X144525000Y-89905000D03*
%TO.P,U1,5,CTRL*%
%TO.N,unconnected-(U1-Pad5)*%
X149475000Y-89905000D03*
%TO.P,U1,6,THR*%
%TO.N,/THR*%
X149475000Y-88635000D03*
%TO.P,U1,7,DIS*%
%TO.N,/DIS*%
X149475000Y-87365000D03*
%TO.P,U1,8,VDD*%
%TO.N,/VDD*%
X149475000Y-86095000D03*
%TD*%
D11*
%TO.P,R3,1*%
%TO.N,Net-(U1-Pad3)*%
X140000000Y-89000000D03*
%TO.P,R3,2*%
%TO.N,Net-(D1-Pad2)*%
X140000000Y-91000000D03*
%TD*%
%TO.P,R2,1*%
%TO.N,/DIS*%
X154000000Y-90000000D03*
%TO.P,R2,2*%
%TO.N,/THR*%
X154000000Y-92000000D03*
%TD*%
%TO.P,R1,1*%
%TO.N,/VDD*%
X154000000Y-86000000D03*
%TO.P,R1,2*%
%TO.N,/DIS*%
X154000000Y-88000000D03*
%TD*%
D12*
%TO.P,D1,1,K*%
%TO.N,GND*%
X140000000Y-95025000D03*
%TO.P,D1,2,A*%
%TO.N,Net-(D1-Pad2)*%
X140000000Y-92975000D03*
%TD*%
D13*
%TO.P,C1,1*%
%TO.N,/THR*%
X140000000Y-87037500D03*
%TO.P,C1,2*%
%TO.N,GND*%
X140000000Y-84962500D03*
%TD*%
D14*
%TO.N,/VDD*%
X134200000Y-83700000D03*
X159800000Y-83600000D03*
%TO.N,GND*%
X144600000Y-84000000D03*
X140000000Y-97000000D03*
X140000000Y-83000000D03*
%TD*%
D15*
%TO.N,GND*%
X144525000Y-84075000D02*
X144525000Y-86095000D01*
X144600000Y-84000000D02*
X144525000Y-84075000D01*
%TO.N,/THR*%
X147335000Y-88635000D02*
X149475000Y-88635000D01*
X146065000Y-87365000D02*
X147335000Y-88635000D01*
X144525000Y-87365000D02*
X146065000Y-87365000D01*
%TO.N,GND*%
X140000000Y-95025000D02*
X140000000Y-97000000D01*
X140000000Y-84962500D02*
X140000000Y-83000000D01*
%TO.N,/THR*%
X152300000Y-89100000D02*
X151835000Y-88635000D01*
X152300000Y-91500000D02*
X152300000Y-89100000D01*
X154000000Y-92000000D02*
X152800000Y-92000000D01*
X152800000Y-92000000D02*
X152300000Y-91500000D01*
X151835000Y-88635000D02*
X149475000Y-88635000D01*
X142165000Y-87365000D02*
X144300000Y-87365000D01*
X141837500Y-87037500D02*
X142165000Y-87365000D01*
X140000000Y-87037500D02*
X141837500Y-87037500D01*
%TO.N,Net-(U1-Pad3)*%
X142265000Y-88635000D02*
X144300000Y-88635000D01*
X141900000Y-89000000D02*
X142265000Y-88635000D01*
X140000000Y-89000000D02*
X141900000Y-89000000D01*
%TO.N,/DIS*%
X152100000Y-88000000D02*
X154000000Y-88000000D01*
X151465000Y-87365000D02*
X152100000Y-88000000D01*
X149475000Y-87365000D02*
X151465000Y-87365000D01*
X154000000Y-88000000D02*
X154000000Y-90000000D01*
%TO.N,Net-(D1-Pad2)*%
X140000000Y-91000000D02*
X140000000Y-92975000D01*
%TD*%
%TA.AperFunction,Conductor*%
%TO.N,/VDD*%
G36*
X162742539Y-73220185D02*
G01*
X162788294Y-73272989D01*
X162799500Y-73324500D01*
X162799500Y-103675500D01*
X162779815Y-103742539D01*
X162727011Y-103788294D01*
X162675500Y-103799500D01*
X131324500Y-103799500D01*
X131257461Y-103779815D01*
X131211706Y-103727011D01*
X131200500Y-103675500D01*
X131200500Y-95403834D01*
X139099500Y-95403834D01*
X139102481Y-95435369D01*
X139147366Y-95563184D01*
X139227850Y-95672150D01*
X139235306Y-95677657D01*
X139329361Y-95747128D01*
X139329363Y-95747129D01*
X139336816Y-95752634D01*
X139345555Y-95755703D01*
X139345557Y-95755704D01*
X139393242Y-95772449D01*
X139464631Y-95797519D01*
X139472150Y-95798230D01*
X139472151Y-95798230D01*
X139493252Y-95800225D01*
X139493262Y-95800225D01*
X139496166Y-95800500D01*
X139550500Y-95800500D01*
X139617539Y-95820185D01*
X139663294Y-95872989D01*
X139674500Y-95924500D01*
X139674500Y-96431701D01*
X139654815Y-96498740D01*
X139625986Y-96530077D01*
X139571718Y-96571718D01*
X139475464Y-96697159D01*
X139414956Y-96843238D01*
X139394318Y-97000000D01*
X139414956Y-97156762D01*
X139475464Y-97302841D01*
X139571718Y-97428282D01*
X139697159Y-97524536D01*
X139704667Y-97527646D01*
X139835729Y-97581934D01*
X139835731Y-97581935D01*
X139843238Y-97585044D01*
X140000000Y-97605682D01*
X140008059Y-97604621D01*
X140148703Y-97586105D01*
X140156762Y-97585044D01*
X140164269Y-97581935D01*
X140164271Y-97581934D01*
X140295333Y-97527646D01*
X140302841Y-97524536D01*
X140428282Y-97428282D01*
X140524536Y-97302841D01*
X140585044Y-97156762D01*
X140605682Y-97000000D01*
X140585044Y-96843238D01*
X140524536Y-96697159D01*
X140428282Y-96571718D01*
X140374014Y-96530077D01*
X140332811Y-96473649D01*
X140325500Y-96431701D01*
X140325500Y-95924500D01*
X140345185Y-95857461D01*
X140397989Y-95811706D01*
X140449500Y-95800500D01*
X140503834Y-95800500D01*
X140506738Y-95800225D01*
X140506748Y-95800225D01*
X140527849Y-95798230D01*
X140527850Y-95798230D01*
X140535369Y-95797519D01*
X140606758Y-95772449D01*
X140654443Y-95755704D01*
X140654445Y-95755703D01*
X140663184Y-95752634D01*
X140670637Y-95747129D01*
X140670639Y-95747128D01*
X140764694Y-95677657D01*
X140772150Y-95672150D01*
X140852634Y-95563184D01*
X140897519Y-95435369D01*
X140900500Y-95403834D01*
X140900500Y-94646166D01*
X140897519Y-94614631D01*
X140852634Y-94486816D01*
X140772150Y-94377850D01*
X140742304Y-94355805D01*
X140670639Y-94302872D01*
X140670637Y-94302871D01*
X140663184Y-94297366D01*
X140654445Y-94294297D01*
X140654443Y-94294296D01*
X140606758Y-94277551D01*
X140535369Y-94252481D01*
X140527850Y-94251770D01*
X140527849Y-94251770D01*
X140506748Y-94249775D01*
X140506738Y-94249775D01*
X140503834Y-94249500D01*
X139496166Y-94249500D01*
X139493262Y-94249775D01*
X139493252Y-94249775D01*
X139472151Y-94251770D01*
X139472150Y-94251770D01*
X139464631Y-94252481D01*
X139393242Y-94277551D01*
X139345557Y-94294296D01*
X139345555Y-94294297D01*
X139336816Y-94297366D01*
X139329363Y-94302871D01*
X139329361Y-94302872D01*
X139257696Y-94355805D01*
X139227850Y-94377850D01*
X139147366Y-94486816D01*
X139102481Y-94614631D01*
X139099500Y-94646166D01*
X139099500Y-95403834D01*
X131200500Y-95403834D01*
X131200500Y-93353834D01*
X139099500Y-93353834D01*
X139102481Y-93385369D01*
X139147366Y-93513184D01*
X139227850Y-93622150D01*
X139235306Y-93627657D01*
X139329361Y-93697128D01*
X139329363Y-93697129D01*
X139336816Y-93702634D01*
X139345555Y-93705703D01*
X139345557Y-93705704D01*
X139393242Y-93722449D01*
X139464631Y-93747519D01*
X139472150Y-93748230D01*
X139472151Y-93748230D01*
X139493252Y-93750225D01*
X139493262Y-93750225D01*
X139496166Y-93750500D01*
X140503834Y-93750500D01*
X140506738Y-93750225D01*
X140506748Y-93750225D01*
X140527849Y-93748230D01*
X140527850Y-93748230D01*
X140535369Y-93747519D01*
X140606758Y-93722449D01*
X140654443Y-93705704D01*
X140654445Y-93705703D01*
X140663184Y-93702634D01*
X140670637Y-93697129D01*
X140670639Y-93697128D01*
X140764694Y-93627657D01*
X140772150Y-93622150D01*
X140852634Y-93513184D01*
X140897519Y-93385369D01*
X140900500Y-93353834D01*
X140900500Y-92596166D01*
X140897519Y-92564631D01*
X140852634Y-92436816D01*
X140830426Y-92406748D01*
X140777657Y-92335306D01*
X140772150Y-92327850D01*
X140738937Y-92303318D01*
X140670639Y-92252872D01*
X140670637Y-92252871D01*
X140663184Y-92247366D01*
X140654445Y-92244297D01*
X140654443Y-92244296D01*
X140585575Y-92220112D01*
X140535369Y-92202481D01*
X140527850Y-92201770D01*
X140527849Y-92201770D01*
X140506748Y-92199775D01*
X140506738Y-92199775D01*
X140503834Y-92199500D01*
X140449500Y-92199500D01*
X140382461Y-92179815D01*
X140336706Y-92127011D01*
X140325500Y-92075500D01*
X140325500Y-91924500D01*
X140345185Y-91857461D01*
X140397989Y-91811706D01*
X140449500Y-91800500D01*
X140503834Y-91800500D01*
X140506738Y-91800225D01*
X140506748Y-91800225D01*
X140527849Y-91798230D01*
X140527850Y-91798230D01*
X140535369Y-91797519D01*
X140606758Y-91772449D01*
X140654443Y-91755704D01*
X140654445Y-91755703D01*
X140663184Y-91752634D01*
X140670637Y-91747129D01*
X140670639Y-91747128D01*
X140764694Y-91677657D01*
X140772150Y-91672150D01*
X140828273Y-91596166D01*
X140847128Y-91570639D01*
X140847129Y-91570637D01*
X140852634Y-91563184D01*
X140861028Y-91539283D01*
X140893941Y-91445557D01*
X140897519Y-91435369D01*
X140900500Y-91403834D01*
X140900500Y-90596166D01*
X140897519Y-90564631D01*
X140852634Y-90436816D01*
X140830426Y-90406748D01*
X140787365Y-90348450D01*
X140772150Y-90327850D01*
X140742304Y-90305805D01*
X140670639Y-90252872D01*
X140670637Y-90252871D01*
X140663184Y-90247366D01*
X140654445Y-90244297D01*
X140654443Y-90244296D01*
X140606758Y-90227551D01*
X140535369Y-90202481D01*
X140527850Y-90201770D01*
X140527849Y-90201770D01*
X140506748Y-90199775D01*
X140506738Y-90199775D01*
X140503834Y-90199500D01*
X139496166Y-90199500D01*
X139493262Y-90199775D01*
X139493252Y-90199775D01*
X139472151Y-90201770D01*
X139472150Y-90201770D01*
X139464631Y-90202481D01*
X139393242Y-90227551D01*
X139345557Y-90244296D01*
X139345555Y-90244297D01*
X139336816Y-90247366D01*
X139329363Y-90252871D01*
X139329361Y-90252872D01*
X139257696Y-90305805D01*
X139227850Y-90327850D01*
X139212635Y-90348450D01*
X139169575Y-90406748D01*
X139147366Y-90436816D01*
X139102481Y-90564631D01*
X139099500Y-90596166D01*
X139099500Y-91403834D01*
X139102481Y-91435369D01*
X139106059Y-91445557D01*
X139138973Y-91539283D01*
X139147366Y-91563184D01*
X139152871Y-91570637D01*
X139152872Y-91570639D01*
X139171727Y-91596166D01*
X139227850Y-91672150D01*
X139235306Y-91677657D01*
X139329361Y-91747128D01*
X139329363Y-91747129D01*
X139336816Y-91752634D01*
X139345555Y-91755703D01*
X139345557Y-91755704D01*
X139393242Y-91772449D01*
X139464631Y-91797519D01*
X139472150Y-91798230D01*
X139472151Y-91798230D01*
X139493252Y-91800225D01*
X139493262Y-91800225D01*
X139496166Y-91800500D01*
X139550500Y-91800500D01*
X139617539Y-91820185D01*
X139663294Y-91872989D01*
X139674500Y-91924500D01*
X139674500Y-92075500D01*
X139654815Y-92142539D01*
X139602011Y-92188294D01*
X139550500Y-92199500D01*
X139496166Y-92199500D01*
X139493262Y-92199775D01*
X139493252Y-92199775D01*
X139472151Y-92201770D01*
X139472150Y-92201770D01*
X139464631Y-92202481D01*
X139414425Y-92220112D01*
X139345557Y-92244296D01*
X139345555Y-92244297D01*
X139336816Y-92247366D01*
X139329363Y-92252871D01*
X139329361Y-92252872D01*
X139261063Y-92303318D01*
X139227850Y-92327850D01*
X139222343Y-92335306D01*
X139169575Y-92406748D01*
X139147366Y-92436816D01*
X139102481Y-92564631D01*
X139099500Y-92596166D01*
X139099500Y-93353834D01*
X131200500Y-93353834D01*
X131200500Y-90122743D01*
X143355089Y-90122743D01*
X143358723Y-90147434D01*
X143364373Y-90165616D01*
X143406961Y-90252358D01*
X143418734Y-90268803D01*
X143486691Y-90336642D01*
X143503150Y-90348381D01*
X143589977Y-90390823D01*
X143608152Y-90396441D01*
X143662372Y-90404351D01*
X143671320Y-90405000D01*
X144307170Y-90405000D01*
X144322169Y-90400596D01*
X144323356Y-90399226D01*
X144325000Y-90391668D01*
X144325000Y-90387169D01*
X144725000Y-90387169D01*
X144729404Y-90402168D01*
X144730774Y-90403355D01*
X144738332Y-90404999D01*
X145378642Y-90404999D01*
X145387664Y-90404338D01*
X145442426Y-90396278D01*
X145460622Y-90390625D01*
X145547358Y-90348039D01*
X145563803Y-90336266D01*
X145631642Y-90268309D01*
X145643381Y-90251850D01*
X145685826Y-90165017D01*
X145691440Y-90146855D01*
X145694972Y-90122641D01*
X145693032Y-90108944D01*
X145679650Y-90105000D01*
X144742830Y-90105000D01*
X144727831Y-90109404D01*
X144726644Y-90110774D01*
X144725000Y-90118332D01*
X144725000Y-90387169D01*
X144325000Y-90387169D01*
X144325000Y-90122830D01*
X144320596Y-90107831D01*
X144319226Y-90106644D01*
X144311668Y-90105000D01*
X143370307Y-90105000D01*
X143357057Y-90108891D01*
X143355089Y-90122743D01*
X131200500Y-90122743D01*
X131200500Y-90088218D01*
X148299500Y-90088218D01*
X148309642Y-90157112D01*
X148361068Y-90261855D01*
X148368323Y-90269097D01*
X148436021Y-90336677D01*
X148443650Y-90344293D01*
X148452855Y-90348792D01*
X148452857Y-90348794D01*
X148509644Y-90376552D01*
X148548482Y-90395536D01*
X148558006Y-90396925D01*
X148558008Y-90396926D01*
X148612331Y-90404851D01*
X148612336Y-90404851D01*
X148616782Y-90405500D01*
X150333218Y-90405500D01*
X150402112Y-90395358D01*
X150506855Y-90343932D01*
X150589293Y-90261350D01*
X150593792Y-90252145D01*
X150593794Y-90252143D01*
X150636308Y-90165167D01*
X150640536Y-90156518D01*
X150645451Y-90122830D01*
X150649851Y-90092669D01*
X150649851Y-90092664D01*
X150650500Y-90088218D01*
X150650500Y-89721782D01*
X150640358Y-89652888D01*
X150588932Y-89548145D01*
X150514391Y-89473734D01*
X150513602Y-89472946D01*
X150513601Y-89472945D01*
X150506350Y-89465707D01*
X150497145Y-89461208D01*
X150497143Y-89461206D01*
X150418635Y-89422831D01*
X150401518Y-89414464D01*
X150391994Y-89413075D01*
X150391992Y-89413074D01*
X150337669Y-89405149D01*
X150337664Y-89405149D01*
X150333218Y-89404500D01*
X148616782Y-89404500D01*
X148547888Y-89414642D01*
X148443145Y-89466068D01*
X148360707Y-89548650D01*
X148356208Y-89557855D01*
X148356206Y-89557857D01*
X148349219Y-89572151D01*
X148309464Y-89653482D01*
X148308075Y-89663006D01*
X148308074Y-89663008D01*
X148302524Y-89701056D01*
X148299500Y-89721782D01*
X148299500Y-90088218D01*
X131200500Y-90088218D01*
X131200500Y-89403834D01*
X139099500Y-89403834D01*
X139099775Y-89406738D01*
X139099775Y-89406748D01*
X139100923Y-89418888D01*
X139102481Y-89435369D01*
X139115822Y-89473358D01*
X139142085Y-89548145D01*
X139147366Y-89563184D01*
X139152871Y-89570637D01*
X139152872Y-89570639D01*
X139171727Y-89596166D01*
X139227850Y-89672150D01*
X139235306Y-89677657D01*
X139329361Y-89747128D01*
X139329363Y-89747129D01*
X139336816Y-89752634D01*
X139345555Y-89755703D01*
X139345557Y-89755704D01*
X139393242Y-89772449D01*
X139464631Y-89797519D01*
X139472150Y-89798230D01*
X139472151Y-89798230D01*
X139493252Y-89800225D01*
X139493262Y-89800225D01*
X139496166Y-89800500D01*
X140503834Y-89800500D01*
X140506738Y-89800225D01*
X140506748Y-89800225D01*
X140527849Y-89798230D01*
X140527850Y-89798230D01*
X140535369Y-89797519D01*
X140606758Y-89772449D01*
X140654443Y-89755704D01*
X140654445Y-89755703D01*
X140663184Y-89752634D01*
X140670637Y-89747129D01*
X140670639Y-89747128D01*
X140751559Y-89687359D01*
X143355028Y-89687359D01*
X143356968Y-89701056D01*
X143370350Y-89705000D01*
X144307170Y-89705000D01*
X144322169Y-89700596D01*
X144323356Y-89699226D01*
X144325000Y-89691668D01*
X144325000Y-89687170D01*
X144725000Y-89687170D01*
X144729404Y-89702169D01*
X144730774Y-89703356D01*
X144738332Y-89705000D01*
X145679693Y-89705000D01*
X145692943Y-89701109D01*
X145694911Y-89687257D01*
X145691277Y-89662566D01*
X145685627Y-89644384D01*
X145643039Y-89557642D01*
X145631266Y-89541197D01*
X145563309Y-89473358D01*
X145546850Y-89461619D01*
X145460023Y-89419177D01*
X145441848Y-89413559D01*
X145387628Y-89405649D01*
X145378680Y-89405000D01*
X144742830Y-89405000D01*
X144727831Y-89409404D01*
X144726644Y-89410774D01*
X144725000Y-89418332D01*
X144725000Y-89687170D01*
X144325000Y-89687170D01*
X144325000Y-89422831D01*
X144320596Y-89407832D01*
X144319226Y-89406645D01*
X144311668Y-89405001D01*
X143671358Y-89405001D01*
X143662336Y-89405662D01*
X143607574Y-89413722D01*
X143589378Y-89419375D01*
X143502642Y-89461961D01*
X143486197Y-89473734D01*
X143418358Y-89541691D01*
X143406619Y-89558150D01*
X143364174Y-89644983D01*
X143358560Y-89663145D01*
X143355028Y-89687359D01*
X140751559Y-89687359D01*
X140764694Y-89677657D01*
X140772150Y-89672150D01*
X140828273Y-89596166D01*
X140847128Y-89570639D01*
X140847129Y-89570637D01*
X140852634Y-89563184D01*
X140857916Y-89548145D01*
X140884178Y-89473358D01*
X140897519Y-89435369D01*
X140898230Y-89427848D01*
X140899310Y-89422926D01*
X140932904Y-89361663D01*
X140994287Y-89328287D01*
X141020429Y-89325500D01*
X141880373Y-89325500D01*
X141891181Y-89325972D01*
X141928807Y-89329264D01*
X141965310Y-89319483D01*
X141975857Y-89317145D01*
X141989035Y-89314821D01*
X142013045Y-89310588D01*
X142022442Y-89305162D01*
X142025900Y-89303904D01*
X142029209Y-89302361D01*
X142039684Y-89299554D01*
X142070617Y-89277894D01*
X142079743Y-89272080D01*
X142103061Y-89258618D01*
X142103063Y-89258616D01*
X142112455Y-89253194D01*
X142136738Y-89224255D01*
X142144045Y-89216281D01*
X142363507Y-88996819D01*
X142424830Y-88963334D01*
X142451188Y-88960500D01*
X143328359Y-88960500D01*
X143395398Y-88980185D01*
X143415964Y-88996743D01*
X143486395Y-89067051D01*
X143493650Y-89074293D01*
X143502855Y-89078792D01*
X143502857Y-89078794D01*
X143559644Y-89106552D01*
X143598482Y-89125536D01*
X143608006Y-89126925D01*
X143608008Y-89126926D01*
X143662331Y-89134851D01*
X143662336Y-89134851D01*
X143666782Y-89135500D01*
X145383218Y-89135500D01*
X145427778Y-89128940D01*
X145442582Y-89126761D01*
X145452112Y-89125358D01*
X145556855Y-89073932D01*
X145597823Y-89032892D01*
X145632054Y-88998602D01*
X145632055Y-88998601D01*
X145639293Y-88991350D01*
X145643792Y-88982145D01*
X145643794Y-88982143D01*
X145679162Y-88909786D01*
X145690536Y-88886518D01*
X145693928Y-88863268D01*
X145699851Y-88822669D01*
X145699851Y-88822664D01*
X145700500Y-88818218D01*
X145700500Y-88451782D01*
X145693785Y-88406167D01*
X145691761Y-88392418D01*
X145690358Y-88382888D01*
X145638932Y-88278145D01*
X145580798Y-88220112D01*
X145563602Y-88202946D01*
X145563601Y-88202945D01*
X145556350Y-88195707D01*
X145547145Y-88191208D01*
X145547143Y-88191206D01*
X145481546Y-88159142D01*
X145451518Y-88144464D01*
X145441994Y-88143075D01*
X145441992Y-88143074D01*
X145387669Y-88135149D01*
X145387664Y-88135149D01*
X145383218Y-88134500D01*
X143666782Y-88134500D01*
X143597888Y-88144642D01*
X143493145Y-88196068D01*
X143485903Y-88203323D01*
X143416242Y-88273105D01*
X143354948Y-88306643D01*
X143328484Y-88309500D01*
X142284627Y-88309500D01*
X142273819Y-88309028D01*
X142236193Y-88305736D01*
X142199690Y-88315517D01*
X142189143Y-88317855D01*
X142187839Y-88318085D01*
X142151955Y-88324412D01*
X142142558Y-88329838D01*
X142139100Y-88331096D01*
X142135791Y-88332639D01*
X142125316Y-88335446D01*
X142116431Y-88341667D01*
X142116432Y-88341667D01*
X142094383Y-88357106D01*
X142085257Y-88362920D01*
X142061939Y-88376382D01*
X142061937Y-88376384D01*
X142052545Y-88381806D01*
X142045572Y-88390116D01*
X142028263Y-88410744D01*
X142020955Y-88418719D01*
X141801493Y-88638181D01*
X141740170Y-88671666D01*
X141713812Y-88674500D01*
X141020429Y-88674500D01*
X140953390Y-88654815D01*
X140907635Y-88602011D01*
X140899310Y-88577074D01*
X140898230Y-88572151D01*
X140897519Y-88564631D01*
X140872449Y-88493242D01*
X140855704Y-88445557D01*
X140855703Y-88445555D01*
X140852634Y-88436816D01*
X140839268Y-88418719D01*
X140782355Y-88341667D01*
X140772150Y-88327850D01*
X140738937Y-88303318D01*
X140670639Y-88252872D01*
X140670637Y-88252871D01*
X140663184Y-88247366D01*
X140654445Y-88244297D01*
X140654443Y-88244296D01*
X140585575Y-88220112D01*
X140535369Y-88202481D01*
X140527850Y-88201770D01*
X140527849Y-88201770D01*
X140506748Y-88199775D01*
X140506738Y-88199775D01*
X140503834Y-88199500D01*
X139496166Y-88199500D01*
X139493262Y-88199775D01*
X139493252Y-88199775D01*
X139472151Y-88201770D01*
X139472150Y-88201770D01*
X139464631Y-88202481D01*
X139414425Y-88220112D01*
X139345557Y-88244296D01*
X139345555Y-88244297D01*
X139336816Y-88247366D01*
X139329363Y-88252871D01*
X139329361Y-88252872D01*
X139261063Y-88303318D01*
X139227850Y-88327850D01*
X139217645Y-88341667D01*
X139160733Y-88418719D01*
X139147366Y-88436816D01*
X139144297Y-88445555D01*
X139144296Y-88445557D01*
X139127551Y-88493242D01*
X139102481Y-88564631D01*
X139099500Y-88596166D01*
X139099500Y-89403834D01*
X131200500Y-89403834D01*
X131200500Y-87428834D01*
X139074500Y-87428834D01*
X139074775Y-87431738D01*
X139074775Y-87431748D01*
X139076081Y-87445557D01*
X139077481Y-87460369D01*
X139079985Y-87467498D01*
X139116736Y-87572151D01*
X139122366Y-87588184D01*
X139127871Y-87595637D01*
X139127872Y-87595639D01*
X139159410Y-87638337D01*
X139202850Y-87697150D01*
X139210306Y-87702657D01*
X139304361Y-87772128D01*
X139304363Y-87772129D01*
X139311816Y-87777634D01*
X139320555Y-87780703D01*
X139320557Y-87780704D01*
X139366043Y-87796677D01*
X139439631Y-87822519D01*
X139447150Y-87823230D01*
X139447151Y-87823230D01*
X139468252Y-87825225D01*
X139468262Y-87825225D01*
X139471166Y-87825500D01*
X140528834Y-87825500D01*
X140531738Y-87825225D01*
X140531748Y-87825225D01*
X140552849Y-87823230D01*
X140552850Y-87823230D01*
X140560369Y-87822519D01*
X140633957Y-87796677D01*
X140679443Y-87780704D01*
X140679445Y-87780703D01*
X140688184Y-87777634D01*
X140695637Y-87772129D01*
X140695639Y-87772128D01*
X140789694Y-87702657D01*
X140797150Y-87697150D01*
X140840590Y-87638337D01*
X140872128Y-87595639D01*
X140872129Y-87595637D01*
X140877634Y-87588184D01*
X140883265Y-87572151D01*
X140920015Y-87467498D01*
X140922519Y-87460369D01*
X140922711Y-87458343D01*
X140955158Y-87399165D01*
X141016540Y-87365788D01*
X141042686Y-87363000D01*
X141651312Y-87363000D01*
X141718351Y-87382685D01*
X141738993Y-87399319D01*
X141920950Y-87581276D01*
X141928259Y-87589251D01*
X141952545Y-87618194D01*
X141961937Y-87623616D01*
X141961939Y-87623618D01*
X141985257Y-87637080D01*
X141994383Y-87642894D01*
X142025316Y-87664554D01*
X142035791Y-87667361D01*
X142039100Y-87668904D01*
X142042558Y-87670162D01*
X142051955Y-87675588D01*
X142075965Y-87679821D01*
X142089143Y-87682145D01*
X142099690Y-87684483D01*
X142136193Y-87694264D01*
X142173819Y-87690972D01*
X142184627Y-87690500D01*
X143328359Y-87690500D01*
X143395398Y-87710185D01*
X143415964Y-87726743D01*
X143486395Y-87797051D01*
X143493650Y-87804293D01*
X143502855Y-87808792D01*
X143502857Y-87808794D01*
X143559644Y-87836552D01*
X143598482Y-87855536D01*
X143608006Y-87856925D01*
X143608008Y-87856926D01*
X143662331Y-87864851D01*
X143662336Y-87864851D01*
X143666782Y-87865500D01*
X145383218Y-87865500D01*
X145452112Y-87855358D01*
X145556855Y-87803932D01*
X145633757Y-87726895D01*
X145695052Y-87693357D01*
X145721516Y-87690500D01*
X145878812Y-87690500D01*
X145945851Y-87710185D01*
X145966493Y-87726819D01*
X146529488Y-88289815D01*
X147090955Y-88851282D01*
X147098264Y-88859257D01*
X147122545Y-88888194D01*
X147131940Y-88893619D01*
X147131941Y-88893619D01*
X147155261Y-88907083D01*
X147164379Y-88912892D01*
X147195316Y-88934554D01*
X147205791Y-88937361D01*
X147209108Y-88938908D01*
X147212561Y-88940165D01*
X147221955Y-88945588D01*
X147232639Y-88947472D01*
X147259155Y-88952148D01*
X147269712Y-88954489D01*
X147295712Y-88961455D01*
X147295713Y-88961455D01*
X147306193Y-88964263D01*
X147316997Y-88963318D01*
X147317000Y-88963318D01*
X147343811Y-88960972D01*
X147354618Y-88960500D01*
X148278359Y-88960500D01*
X148345398Y-88980185D01*
X148365964Y-88996743D01*
X148436395Y-89067051D01*
X148443650Y-89074293D01*
X148452855Y-89078792D01*
X148452857Y-89078794D01*
X148509644Y-89106552D01*
X148548482Y-89125536D01*
X148558006Y-89126925D01*
X148558008Y-89126926D01*
X148612331Y-89134851D01*
X148612336Y-89134851D01*
X148616782Y-89135500D01*
X150333218Y-89135500D01*
X150377778Y-89128940D01*
X150392582Y-89126761D01*
X150402112Y-89125358D01*
X150506855Y-89073932D01*
X150549861Y-89030851D01*
X150583758Y-88996895D01*
X150645052Y-88963357D01*
X150671516Y-88960500D01*
X151648812Y-88960500D01*
X151715851Y-88980185D01*
X151736493Y-88996819D01*
X151938181Y-89198508D01*
X151971666Y-89259831D01*
X151974500Y-89286189D01*
X151974500Y-91480373D01*
X151974028Y-91491181D01*
X151970736Y-91528807D01*
X151980517Y-91565310D01*
X151982855Y-91575857D01*
X151989412Y-91613045D01*
X151994838Y-91622442D01*
X151996096Y-91625900D01*
X151997639Y-91629209D01*
X152000446Y-91639684D01*
X152006667Y-91648568D01*
X152022106Y-91670617D01*
X152027920Y-91679743D01*
X152046806Y-91712455D01*
X152055116Y-91719428D01*
X152075744Y-91736737D01*
X152083719Y-91744045D01*
X152555950Y-92216276D01*
X152563259Y-92224251D01*
X152587545Y-92253194D01*
X152596937Y-92258616D01*
X152596939Y-92258618D01*
X152620257Y-92272080D01*
X152629383Y-92277894D01*
X152660316Y-92299554D01*
X152670791Y-92302361D01*
X152674100Y-92303904D01*
X152677558Y-92305162D01*
X152686955Y-92310588D01*
X152710965Y-92314821D01*
X152724143Y-92317145D01*
X152734690Y-92319483D01*
X152771193Y-92329264D01*
X152808822Y-92325972D01*
X152819630Y-92325500D01*
X152979571Y-92325500D01*
X153046610Y-92345185D01*
X153092365Y-92397989D01*
X153100690Y-92422926D01*
X153101770Y-92427848D01*
X153102481Y-92435369D01*
X153147366Y-92563184D01*
X153152871Y-92570637D01*
X153152872Y-92570639D01*
X153171727Y-92596166D01*
X153227850Y-92672150D01*
X153235306Y-92677657D01*
X153329361Y-92747128D01*
X153329363Y-92747129D01*
X153336816Y-92752634D01*
X153345555Y-92755703D01*
X153345557Y-92755704D01*
X153393242Y-92772449D01*
X153464631Y-92797519D01*
X153472150Y-92798230D01*
X153472151Y-92798230D01*
X153493252Y-92800225D01*
X153493262Y-92800225D01*
X153496166Y-92800500D01*
X154503834Y-92800500D01*
X154506738Y-92800225D01*
X154506748Y-92800225D01*
X154527849Y-92798230D01*
X154527850Y-92798230D01*
X154535369Y-92797519D01*
X154606758Y-92772449D01*
X154654443Y-92755704D01*
X154654445Y-92755703D01*
X154663184Y-92752634D01*
X154670637Y-92747129D01*
X154670639Y-92747128D01*
X154764694Y-92677657D01*
X154772150Y-92672150D01*
X154828273Y-92596166D01*
X154847128Y-92570639D01*
X154847129Y-92570637D01*
X154852634Y-92563184D01*
X154897519Y-92435369D01*
X154900500Y-92403834D01*
X154900500Y-91596166D01*
X154897519Y-91564631D01*
X154852634Y-91436816D01*
X154830426Y-91406748D01*
X154777657Y-91335306D01*
X154772150Y-91327850D01*
X154742304Y-91305805D01*
X154670639Y-91252872D01*
X154670637Y-91252871D01*
X154663184Y-91247366D01*
X154654445Y-91244297D01*
X154654443Y-91244296D01*
X154606758Y-91227551D01*
X154535369Y-91202481D01*
X154527850Y-91201770D01*
X154527849Y-91201770D01*
X154506748Y-91199775D01*
X154506738Y-91199775D01*
X154503834Y-91199500D01*
X153496166Y-91199500D01*
X153493262Y-91199775D01*
X153493252Y-91199775D01*
X153472151Y-91201770D01*
X153472150Y-91201770D01*
X153464631Y-91202481D01*
X153393242Y-91227551D01*
X153345557Y-91244296D01*
X153345555Y-91244297D01*
X153336816Y-91247366D01*
X153329363Y-91252871D01*
X153329361Y-91252872D01*
X153257696Y-91305805D01*
X153227850Y-91327850D01*
X153222343Y-91335306D01*
X153169575Y-91406748D01*
X153147366Y-91436816D01*
X153144297Y-91445555D01*
X153144296Y-91445557D01*
X153118857Y-91517998D01*
X153102481Y-91564631D01*
X153101805Y-91571786D01*
X153068289Y-91632909D01*
X153006907Y-91666286D01*
X152937224Y-91661179D01*
X152893081Y-91632755D01*
X152661819Y-91401493D01*
X152628334Y-91340170D01*
X152625500Y-91313812D01*
X152625500Y-89119616D01*
X152625972Y-89108808D01*
X152628317Y-89082000D01*
X152629263Y-89071193D01*
X152619489Y-89034712D01*
X152617148Y-89024155D01*
X152612472Y-88997639D01*
X152610588Y-88986955D01*
X152605165Y-88977561D01*
X152603908Y-88974108D01*
X152602361Y-88970791D01*
X152599554Y-88960316D01*
X152577892Y-88929379D01*
X152572083Y-88920261D01*
X152558617Y-88896937D01*
X152558616Y-88896935D01*
X152553194Y-88887545D01*
X152524261Y-88863267D01*
X152516287Y-88855960D01*
X152197507Y-88537180D01*
X152164022Y-88475858D01*
X152169006Y-88406167D01*
X152210877Y-88350233D01*
X152276342Y-88325816D01*
X152285188Y-88325500D01*
X152979571Y-88325500D01*
X153046610Y-88345185D01*
X153092365Y-88397989D01*
X153100690Y-88422926D01*
X153101770Y-88427848D01*
X153102481Y-88435369D01*
X153147366Y-88563184D01*
X153152871Y-88570637D01*
X153152872Y-88570639D01*
X153171727Y-88596166D01*
X153227850Y-88672150D01*
X153235306Y-88677657D01*
X153329361Y-88747128D01*
X153329363Y-88747129D01*
X153336816Y-88752634D01*
X153345555Y-88755703D01*
X153345557Y-88755704D01*
X153393242Y-88772449D01*
X153464631Y-88797519D01*
X153472150Y-88798230D01*
X153472151Y-88798230D01*
X153493252Y-88800225D01*
X153493262Y-88800225D01*
X153496166Y-88800500D01*
X153550500Y-88800500D01*
X153617539Y-88820185D01*
X153663294Y-88872989D01*
X153674500Y-88924500D01*
X153674500Y-89075500D01*
X153654815Y-89142539D01*
X153602011Y-89188294D01*
X153550500Y-89199500D01*
X153496166Y-89199500D01*
X153493262Y-89199775D01*
X153493252Y-89199775D01*
X153472151Y-89201770D01*
X153472150Y-89201770D01*
X153464631Y-89202481D01*
X153393242Y-89227551D01*
X153345557Y-89244296D01*
X153345555Y-89244297D01*
X153336816Y-89247366D01*
X153329363Y-89252871D01*
X153329361Y-89252872D01*
X153261063Y-89303318D01*
X153227850Y-89327850D01*
X153222343Y-89335306D01*
X153157696Y-89422831D01*
X153147366Y-89436816D01*
X153144297Y-89445555D01*
X153144296Y-89445557D01*
X153134678Y-89472946D01*
X153102481Y-89564631D01*
X153099500Y-89596166D01*
X153099500Y-90403834D01*
X153102481Y-90435369D01*
X153147366Y-90563184D01*
X153152871Y-90570637D01*
X153152872Y-90570639D01*
X153171727Y-90596166D01*
X153227850Y-90672150D01*
X153235306Y-90677657D01*
X153329361Y-90747128D01*
X153329363Y-90747129D01*
X153336816Y-90752634D01*
X153345555Y-90755703D01*
X153345557Y-90755704D01*
X153393242Y-90772449D01*
X153464631Y-90797519D01*
X153472150Y-90798230D01*
X153472151Y-90798230D01*
X153493252Y-90800225D01*
X153493262Y-90800225D01*
X153496166Y-90800500D01*
X154503834Y-90800500D01*
X154506738Y-90800225D01*
X154506748Y-90800225D01*
X154527849Y-90798230D01*
X154527850Y-90798230D01*
X154535369Y-90797519D01*
X154606758Y-90772449D01*
X154654443Y-90755704D01*
X154654445Y-90755703D01*
X154663184Y-90752634D01*
X154670637Y-90747129D01*
X154670639Y-90747128D01*
X154764694Y-90677657D01*
X154772150Y-90672150D01*
X154828273Y-90596166D01*
X154847128Y-90570639D01*
X154847129Y-90570637D01*
X154852634Y-90563184D01*
X154897519Y-90435369D01*
X154900500Y-90403834D01*
X154900500Y-89596166D01*
X154897519Y-89564631D01*
X154865322Y-89472946D01*
X154855704Y-89445557D01*
X154855703Y-89445555D01*
X154852634Y-89436816D01*
X154842305Y-89422831D01*
X154777657Y-89335306D01*
X154772150Y-89327850D01*
X154738937Y-89303318D01*
X154670639Y-89252872D01*
X154670637Y-89252871D01*
X154663184Y-89247366D01*
X154654445Y-89244297D01*
X154654443Y-89244296D01*
X154606758Y-89227551D01*
X154535369Y-89202481D01*
X154527850Y-89201770D01*
X154527849Y-89201770D01*
X154506748Y-89199775D01*
X154506738Y-89199775D01*
X154503834Y-89199500D01*
X154449500Y-89199500D01*
X154382461Y-89179815D01*
X154336706Y-89127011D01*
X154325500Y-89075500D01*
X154325500Y-88924500D01*
X154345185Y-88857461D01*
X154397989Y-88811706D01*
X154449500Y-88800500D01*
X154503834Y-88800500D01*
X154506738Y-88800225D01*
X154506748Y-88800225D01*
X154527849Y-88798230D01*
X154527850Y-88798230D01*
X154535369Y-88797519D01*
X154606758Y-88772449D01*
X154654443Y-88755704D01*
X154654445Y-88755703D01*
X154663184Y-88752634D01*
X154670637Y-88747129D01*
X154670639Y-88747128D01*
X154764694Y-88677657D01*
X154772150Y-88672150D01*
X154828273Y-88596166D01*
X154847128Y-88570639D01*
X154847129Y-88570637D01*
X154852634Y-88563184D01*
X154897519Y-88435369D01*
X154900500Y-88403834D01*
X154900500Y-87596166D01*
X154899847Y-87589251D01*
X154898230Y-87572151D01*
X154898230Y-87572150D01*
X154897519Y-87564631D01*
X154860905Y-87460369D01*
X154855704Y-87445557D01*
X154855703Y-87445555D01*
X154852634Y-87436816D01*
X154846739Y-87428834D01*
X154777657Y-87335306D01*
X154772150Y-87327850D01*
X154742304Y-87305805D01*
X154670639Y-87252872D01*
X154670637Y-87252871D01*
X154663184Y-87247366D01*
X154654445Y-87244297D01*
X154654443Y-87244296D01*
X154606758Y-87227551D01*
X154535369Y-87202481D01*
X154527850Y-87201770D01*
X154527849Y-87201770D01*
X154506748Y-87199775D01*
X154506738Y-87199775D01*
X154503834Y-87199500D01*
X153496166Y-87199500D01*
X153493262Y-87199775D01*
X153493252Y-87199775D01*
X153472151Y-87201770D01*
X153472150Y-87201770D01*
X153464631Y-87202481D01*
X153393242Y-87227551D01*
X153345557Y-87244296D01*
X153345555Y-87244297D01*
X153336816Y-87247366D01*
X153329363Y-87252871D01*
X153329361Y-87252872D01*
X153257696Y-87305805D01*
X153227850Y-87327850D01*
X153222343Y-87335306D01*
X153153262Y-87428834D01*
X153147366Y-87436816D01*
X153144297Y-87445555D01*
X153144296Y-87445557D01*
X153139095Y-87460369D01*
X153102481Y-87564631D01*
X153101770Y-87572151D01*
X153100690Y-87577074D01*
X153067096Y-87638337D01*
X153005713Y-87671713D01*
X152979571Y-87674500D01*
X152286188Y-87674500D01*
X152219149Y-87654815D01*
X152198507Y-87638181D01*
X151709050Y-87148724D01*
X151701741Y-87140749D01*
X151684427Y-87120115D01*
X151677455Y-87111806D01*
X151668063Y-87106384D01*
X151668061Y-87106382D01*
X151644743Y-87092920D01*
X151635617Y-87087106D01*
X151613568Y-87071667D01*
X151613569Y-87071667D01*
X151604684Y-87065446D01*
X151594209Y-87062639D01*
X151590900Y-87061096D01*
X151587442Y-87059838D01*
X151578045Y-87054412D01*
X151554035Y-87050179D01*
X151540857Y-87047855D01*
X151530310Y-87045517D01*
X151493807Y-87035736D01*
X151456181Y-87039028D01*
X151445373Y-87039500D01*
X150671641Y-87039500D01*
X150604602Y-87019815D01*
X150584036Y-87003257D01*
X150513605Y-86932949D01*
X150513604Y-86932948D01*
X150506350Y-86925707D01*
X150497145Y-86921208D01*
X150497143Y-86921206D01*
X150440356Y-86893448D01*
X150401518Y-86874464D01*
X150391994Y-86873075D01*
X150391992Y-86873074D01*
X150337669Y-86865149D01*
X150337664Y-86865149D01*
X150333218Y-86864500D01*
X148616782Y-86864500D01*
X148547888Y-86874642D01*
X148443145Y-86926068D01*
X148360707Y-87008650D01*
X148356208Y-87017855D01*
X148356206Y-87017857D01*
X148329904Y-87071667D01*
X148309464Y-87113482D01*
X148308075Y-87123006D01*
X148308074Y-87123008D01*
X148304323Y-87148724D01*
X148299500Y-87181782D01*
X148299500Y-87548218D01*
X148300160Y-87552700D01*
X148306559Y-87596166D01*
X148309642Y-87617112D01*
X148361068Y-87721855D01*
X148368323Y-87729097D01*
X148436021Y-87796677D01*
X148443650Y-87804293D01*
X148452855Y-87808792D01*
X148452857Y-87808794D01*
X148509644Y-87836552D01*
X148548482Y-87855536D01*
X148558006Y-87856925D01*
X148558008Y-87856926D01*
X148612331Y-87864851D01*
X148612336Y-87864851D01*
X148616782Y-87865500D01*
X150333218Y-87865500D01*
X150402112Y-87855358D01*
X150506855Y-87803932D01*
X150583757Y-87726895D01*
X150645052Y-87693357D01*
X150671516Y-87690500D01*
X151278812Y-87690500D01*
X151345851Y-87710185D01*
X151366493Y-87726819D01*
X151737493Y-88097819D01*
X151770978Y-88159142D01*
X151765994Y-88228834D01*
X151724122Y-88284767D01*
X151658658Y-88309184D01*
X151649812Y-88309500D01*
X150671641Y-88309500D01*
X150604602Y-88289815D01*
X150584036Y-88273257D01*
X150513605Y-88202949D01*
X150513604Y-88202948D01*
X150506350Y-88195707D01*
X150497145Y-88191208D01*
X150497143Y-88191206D01*
X150431546Y-88159142D01*
X150401518Y-88144464D01*
X150391994Y-88143075D01*
X150391992Y-88143074D01*
X150337669Y-88135149D01*
X150337664Y-88135149D01*
X150333218Y-88134500D01*
X148616782Y-88134500D01*
X148547888Y-88144642D01*
X148443145Y-88196068D01*
X148435903Y-88203323D01*
X148366242Y-88273105D01*
X148304948Y-88306643D01*
X148278484Y-88309500D01*
X147521189Y-88309500D01*
X147454150Y-88289815D01*
X147433508Y-88273181D01*
X146309050Y-87148724D01*
X146301741Y-87140749D01*
X146284427Y-87120115D01*
X146277455Y-87111806D01*
X146268063Y-87106384D01*
X146268061Y-87106382D01*
X146244743Y-87092920D01*
X146235617Y-87087106D01*
X146213568Y-87071667D01*
X146213569Y-87071667D01*
X146204684Y-87065446D01*
X146194209Y-87062639D01*
X146190900Y-87061096D01*
X146187442Y-87059838D01*
X146178045Y-87054412D01*
X146154035Y-87050179D01*
X146140857Y-87047855D01*
X146130310Y-87045517D01*
X146093807Y-87035736D01*
X146056181Y-87039028D01*
X146045373Y-87039500D01*
X145721641Y-87039500D01*
X145654602Y-87019815D01*
X145634036Y-87003257D01*
X145563605Y-86932949D01*
X145563604Y-86932948D01*
X145556350Y-86925707D01*
X145547145Y-86921208D01*
X145547143Y-86921206D01*
X145490356Y-86893448D01*
X145451518Y-86874464D01*
X145441994Y-86873075D01*
X145441992Y-86873074D01*
X145387669Y-86865149D01*
X145387664Y-86865149D01*
X145383218Y-86864500D01*
X143666782Y-86864500D01*
X143597888Y-86874642D01*
X143493145Y-86926068D01*
X143485903Y-86933323D01*
X143416242Y-87003105D01*
X143354948Y-87036643D01*
X143328484Y-87039500D01*
X142351188Y-87039500D01*
X142284149Y-87019815D01*
X142263507Y-87003181D01*
X142081550Y-86821224D01*
X142074241Y-86813249D01*
X142056927Y-86792615D01*
X142049955Y-86784306D01*
X142040563Y-86778884D01*
X142040561Y-86778882D01*
X142017243Y-86765420D01*
X142008117Y-86759606D01*
X141986068Y-86744167D01*
X141986069Y-86744167D01*
X141977184Y-86737946D01*
X141966709Y-86735139D01*
X141963400Y-86733596D01*
X141959942Y-86732338D01*
X141950545Y-86726912D01*
X141926535Y-86722679D01*
X141913357Y-86720355D01*
X141902810Y-86718017D01*
X141866307Y-86708236D01*
X141828681Y-86711528D01*
X141817873Y-86712000D01*
X141042686Y-86712000D01*
X140975647Y-86692315D01*
X140929892Y-86639511D01*
X140922887Y-86618528D01*
X140922519Y-86614631D01*
X140894180Y-86533932D01*
X140880704Y-86495557D01*
X140880703Y-86495555D01*
X140877634Y-86486816D01*
X140857161Y-86459097D01*
X140802657Y-86385306D01*
X140797150Y-86377850D01*
X140742632Y-86337582D01*
X140695639Y-86302872D01*
X140695637Y-86302871D01*
X140688184Y-86297366D01*
X140679445Y-86294297D01*
X140679443Y-86294296D01*
X140633658Y-86278218D01*
X143349500Y-86278218D01*
X143359642Y-86347112D01*
X143411068Y-86451855D01*
X143418323Y-86459097D01*
X143486021Y-86526677D01*
X143493650Y-86534293D01*
X143502855Y-86538792D01*
X143502857Y-86538794D01*
X143534379Y-86554202D01*
X143598482Y-86585536D01*
X143608006Y-86586925D01*
X143608008Y-86586926D01*
X143662331Y-86594851D01*
X143662336Y-86594851D01*
X143666782Y-86595500D01*
X145383218Y-86595500D01*
X145452112Y-86585358D01*
X145556855Y-86533932D01*
X145639293Y-86451350D01*
X145643792Y-86442145D01*
X145643794Y-86442143D01*
X145686308Y-86355167D01*
X145690536Y-86346518D01*
X145695451Y-86312830D01*
X145695464Y-86312743D01*
X148305089Y-86312743D01*
X148308723Y-86337434D01*
X148314373Y-86355616D01*
X148356961Y-86442358D01*
X148368734Y-86458803D01*
X148436691Y-86526642D01*
X148453150Y-86538381D01*
X148539977Y-86580823D01*
X148558152Y-86586441D01*
X148612372Y-86594351D01*
X148621320Y-86595000D01*
X149257170Y-86595000D01*
X149272169Y-86590596D01*
X149273356Y-86589226D01*
X149275000Y-86581668D01*
X149275000Y-86577169D01*
X149675000Y-86577169D01*
X149679404Y-86592168D01*
X149680774Y-86593355D01*
X149688332Y-86594999D01*
X150328642Y-86594999D01*
X150337664Y-86594338D01*
X150392426Y-86586278D01*
X150410622Y-86580625D01*
X150497358Y-86538039D01*
X150513803Y-86526266D01*
X150581642Y-86458309D01*
X150593381Y-86441850D01*
X150613419Y-86400857D01*
X153100001Y-86400857D01*
X153100275Y-86406670D01*
X153102267Y-86427748D01*
X153105482Y-86442406D01*
X153144742Y-86554202D01*
X153153320Y-86570402D01*
X153222703Y-86664339D01*
X153235661Y-86677297D01*
X153329598Y-86746680D01*
X153345798Y-86755258D01*
X153457597Y-86794518D01*
X153472248Y-86797733D01*
X153493315Y-86799725D01*
X153499160Y-86800000D01*
X153782170Y-86800000D01*
X153797169Y-86795596D01*
X153798356Y-86794226D01*
X153800000Y-86786668D01*
X153800000Y-86782169D01*
X154200000Y-86782169D01*
X154204404Y-86797168D01*
X154205774Y-86798355D01*
X154213332Y-86799999D01*
X154500857Y-86799999D01*
X154506670Y-86799725D01*
X154527748Y-86797733D01*
X154542406Y-86794518D01*
X154654202Y-86755258D01*
X154670402Y-86746680D01*
X154764339Y-86677297D01*
X154777297Y-86664339D01*
X154846680Y-86570402D01*
X154855258Y-86554202D01*
X154894518Y-86442403D01*
X154897733Y-86427752D01*
X154899725Y-86406685D01*
X154900000Y-86400840D01*
X154900000Y-86217830D01*
X154895596Y-86202831D01*
X154894226Y-86201644D01*
X154886668Y-86200000D01*
X154217830Y-86200000D01*
X154202831Y-86204404D01*
X154201644Y-86205774D01*
X154200000Y-86213332D01*
X154200000Y-86782169D01*
X153800000Y-86782169D01*
X153800000Y-86217830D01*
X153795596Y-86202831D01*
X153794226Y-86201644D01*
X153786668Y-86200000D01*
X153117831Y-86200000D01*
X153102832Y-86204404D01*
X153101645Y-86205774D01*
X153100001Y-86213332D01*
X153100001Y-86400857D01*
X150613419Y-86400857D01*
X150635826Y-86355017D01*
X150641440Y-86336855D01*
X150644972Y-86312641D01*
X150643032Y-86298944D01*
X150629650Y-86295000D01*
X149692830Y-86295000D01*
X149677831Y-86299404D01*
X149676644Y-86300774D01*
X149675000Y-86308332D01*
X149675000Y-86577169D01*
X149275000Y-86577169D01*
X149275000Y-86312830D01*
X149270596Y-86297831D01*
X149269226Y-86296644D01*
X149261668Y-86295000D01*
X148320307Y-86295000D01*
X148307057Y-86298891D01*
X148305089Y-86312743D01*
X145695464Y-86312743D01*
X145699851Y-86282669D01*
X145699851Y-86282664D01*
X145700500Y-86278218D01*
X145700500Y-85911782D01*
X145695433Y-85877359D01*
X148305028Y-85877359D01*
X148306968Y-85891056D01*
X148320350Y-85895000D01*
X149257170Y-85895000D01*
X149272169Y-85890596D01*
X149273356Y-85889226D01*
X149275000Y-85881668D01*
X149275000Y-85877170D01*
X149675000Y-85877170D01*
X149679404Y-85892169D01*
X149680774Y-85893356D01*
X149688332Y-85895000D01*
X150629693Y-85895000D01*
X150642943Y-85891109D01*
X150644911Y-85877257D01*
X150641277Y-85852566D01*
X150635627Y-85834384D01*
X150609991Y-85782170D01*
X153100000Y-85782170D01*
X153104404Y-85797169D01*
X153105774Y-85798356D01*
X153113332Y-85800000D01*
X153782170Y-85800000D01*
X153797169Y-85795596D01*
X153798356Y-85794226D01*
X153800000Y-85786668D01*
X153800000Y-85782170D01*
X154200000Y-85782170D01*
X154204404Y-85797169D01*
X154205774Y-85798356D01*
X154213332Y-85800000D01*
X154882169Y-85800000D01*
X154897168Y-85795596D01*
X154898355Y-85794226D01*
X154899999Y-85786668D01*
X154899999Y-85599143D01*
X154899725Y-85593330D01*
X154897733Y-85572252D01*
X154894518Y-85557594D01*
X154855258Y-85445798D01*
X154846680Y-85429598D01*
X154777297Y-85335661D01*
X154764339Y-85322703D01*
X154670402Y-85253320D01*
X154654202Y-85244742D01*
X154542403Y-85205482D01*
X154527752Y-85202267D01*
X154506685Y-85200275D01*
X154500840Y-85200000D01*
X154217830Y-85200000D01*
X154202831Y-85204404D01*
X154201644Y-85205774D01*
X154200000Y-85213332D01*
X154200000Y-85782170D01*
X153800000Y-85782170D01*
X153800000Y-85217831D01*
X153795596Y-85202832D01*
X153794226Y-85201645D01*
X153786668Y-85200001D01*
X153499143Y-85200001D01*
X153493330Y-85200275D01*
X153472252Y-85202267D01*
X153457594Y-85205482D01*
X153345798Y-85244742D01*
X153329598Y-85253320D01*
X153235661Y-85322703D01*
X153222703Y-85335661D01*
X153153320Y-85429598D01*
X153144742Y-85445798D01*
X153105482Y-85557597D01*
X153102267Y-85572248D01*
X153100275Y-85593315D01*
X153100000Y-85599160D01*
X153100000Y-85782170D01*
X150609991Y-85782170D01*
X150593039Y-85747642D01*
X150581266Y-85731197D01*
X150513309Y-85663358D01*
X150496850Y-85651619D01*
X150410023Y-85609177D01*
X150391848Y-85603559D01*
X150337628Y-85595649D01*
X150328680Y-85595000D01*
X149692830Y-85595000D01*
X149677831Y-85599404D01*
X149676644Y-85600774D01*
X149675000Y-85608332D01*
X149675000Y-85877170D01*
X149275000Y-85877170D01*
X149275000Y-85612831D01*
X149270596Y-85597832D01*
X149269226Y-85596645D01*
X149261668Y-85595001D01*
X148621358Y-85595001D01*
X148612336Y-85595662D01*
X148557574Y-85603722D01*
X148539378Y-85609375D01*
X148452642Y-85651961D01*
X148436197Y-85663734D01*
X148368358Y-85731691D01*
X148356619Y-85748150D01*
X148314174Y-85834983D01*
X148308560Y-85853145D01*
X148305028Y-85877359D01*
X145695433Y-85877359D01*
X145690358Y-85842888D01*
X145638932Y-85738145D01*
X145564391Y-85663734D01*
X145563602Y-85662946D01*
X145563601Y-85662945D01*
X145556350Y-85655707D01*
X145547145Y-85651208D01*
X145547143Y-85651206D01*
X145468635Y-85612831D01*
X145451518Y-85604464D01*
X145441994Y-85603075D01*
X145441992Y-85603074D01*
X145387669Y-85595149D01*
X145387664Y-85595149D01*
X145383218Y-85594500D01*
X144974500Y-85594500D01*
X144907461Y-85574815D01*
X144861706Y-85522011D01*
X144850500Y-85470500D01*
X144850500Y-84625121D01*
X144870185Y-84558082D01*
X144903910Y-84525929D01*
X144902841Y-84524536D01*
X145021835Y-84433229D01*
X145028282Y-84428282D01*
X145124536Y-84302841D01*
X145176462Y-84177481D01*
X145181934Y-84164271D01*
X145181935Y-84164269D01*
X145185044Y-84156762D01*
X145205682Y-84000000D01*
X145185044Y-83843238D01*
X145124536Y-83697159D01*
X145028282Y-83571718D01*
X144902841Y-83475464D01*
X144788934Y-83428282D01*
X144764271Y-83418066D01*
X144764269Y-83418065D01*
X144756762Y-83414956D01*
X144600000Y-83394318D01*
X144443238Y-83414956D01*
X144435731Y-83418065D01*
X144435729Y-83418066D01*
X144411066Y-83428282D01*
X144297159Y-83475464D01*
X144171718Y-83571718D01*
X144075464Y-83697159D01*
X144014956Y-83843238D01*
X143994318Y-84000000D01*
X144014956Y-84156762D01*
X144018065Y-84164269D01*
X144018066Y-84164271D01*
X144023538Y-84177481D01*
X144075464Y-84302841D01*
X144080411Y-84309288D01*
X144171718Y-84428282D01*
X144169564Y-84429935D01*
X144196666Y-84479568D01*
X144199500Y-84505926D01*
X144199500Y-85470500D01*
X144179815Y-85537539D01*
X144127011Y-85583294D01*
X144075500Y-85594500D01*
X143666782Y-85594500D01*
X143597888Y-85604642D01*
X143493145Y-85656068D01*
X143452177Y-85697108D01*
X143443596Y-85705704D01*
X143410707Y-85738650D01*
X143406208Y-85747855D01*
X143406206Y-85747857D01*
X143389434Y-85782170D01*
X143359464Y-85843482D01*
X143358075Y-85853006D01*
X143358074Y-85853008D01*
X143352524Y-85891056D01*
X143349500Y-85911782D01*
X143349500Y-86278218D01*
X140633658Y-86278218D01*
X140620755Y-86273687D01*
X140560369Y-86252481D01*
X140552850Y-86251770D01*
X140552849Y-86251770D01*
X140531748Y-86249775D01*
X140531738Y-86249775D01*
X140528834Y-86249500D01*
X139471166Y-86249500D01*
X139468262Y-86249775D01*
X139468252Y-86249775D01*
X139447151Y-86251770D01*
X139447150Y-86251770D01*
X139439631Y-86252481D01*
X139379245Y-86273687D01*
X139320557Y-86294296D01*
X139320555Y-86294297D01*
X139311816Y-86297366D01*
X139304363Y-86302871D01*
X139304361Y-86302872D01*
X139257368Y-86337582D01*
X139202850Y-86377850D01*
X139197343Y-86385306D01*
X139142840Y-86459097D01*
X139122366Y-86486816D01*
X139119297Y-86495555D01*
X139119296Y-86495557D01*
X139105820Y-86533932D01*
X139077481Y-86614631D01*
X139074500Y-86646166D01*
X139074500Y-87428834D01*
X131200500Y-87428834D01*
X131200500Y-85353834D01*
X139074500Y-85353834D01*
X139077481Y-85385369D01*
X139093013Y-85429598D01*
X139107377Y-85470500D01*
X139122366Y-85513184D01*
X139127871Y-85520637D01*
X139127872Y-85520639D01*
X139167888Y-85574815D01*
X139202850Y-85622150D01*
X139210306Y-85627657D01*
X139304361Y-85697128D01*
X139304363Y-85697129D01*
X139311816Y-85702634D01*
X139320555Y-85705703D01*
X139320557Y-85705704D01*
X139368242Y-85722449D01*
X139439631Y-85747519D01*
X139447150Y-85748230D01*
X139447151Y-85748230D01*
X139468252Y-85750225D01*
X139468262Y-85750225D01*
X139471166Y-85750500D01*
X140528834Y-85750500D01*
X140531738Y-85750225D01*
X140531748Y-85750225D01*
X140552849Y-85748230D01*
X140552850Y-85748230D01*
X140560369Y-85747519D01*
X140631758Y-85722449D01*
X140679443Y-85705704D01*
X140679445Y-85705703D01*
X140688184Y-85702634D01*
X140695637Y-85697129D01*
X140695639Y-85697128D01*
X140789694Y-85627657D01*
X140797150Y-85622150D01*
X140832112Y-85574815D01*
X140872128Y-85520639D01*
X140872129Y-85520637D01*
X140877634Y-85513184D01*
X140892624Y-85470500D01*
X140906987Y-85429598D01*
X140922519Y-85385369D01*
X140925500Y-85353834D01*
X140925500Y-84571166D01*
X140922519Y-84539631D01*
X140883997Y-84429935D01*
X140880704Y-84420557D01*
X140880703Y-84420555D01*
X140877634Y-84411816D01*
X140797150Y-84302850D01*
X140767304Y-84280805D01*
X140695639Y-84227872D01*
X140695637Y-84227871D01*
X140688184Y-84222366D01*
X140679445Y-84219297D01*
X140679443Y-84219296D01*
X140631758Y-84202551D01*
X140560369Y-84177481D01*
X140552850Y-84176770D01*
X140552849Y-84176770D01*
X140531748Y-84174775D01*
X140531738Y-84174775D01*
X140528834Y-84174500D01*
X140449500Y-84174500D01*
X140382461Y-84154815D01*
X140336706Y-84102011D01*
X140325500Y-84050500D01*
X140325500Y-83568299D01*
X140345185Y-83501260D01*
X140374014Y-83469923D01*
X140421835Y-83433229D01*
X140428282Y-83428282D01*
X140524536Y-83302841D01*
X140585044Y-83156762D01*
X140605682Y-83000000D01*
X140585044Y-82843238D01*
X140524536Y-82697159D01*
X140428282Y-82571718D01*
X140302841Y-82475464D01*
X140295333Y-82472354D01*
X140164271Y-82418066D01*
X140164269Y-82418065D01*
X140156762Y-82414956D01*
X140000000Y-82394318D01*
X139843238Y-82414956D01*
X139835731Y-82418065D01*
X139835729Y-82418066D01*
X139704667Y-82472354D01*
X139697159Y-82475464D01*
X139571718Y-82571718D01*
X139475464Y-82697159D01*
X139414956Y-82843238D01*
X139394318Y-83000000D01*
X139414956Y-83156762D01*
X139475464Y-83302841D01*
X139571718Y-83428282D01*
X139578165Y-83433229D01*
X139625986Y-83469923D01*
X139667189Y-83526351D01*
X139674500Y-83568299D01*
X139674500Y-84050500D01*
X139654815Y-84117539D01*
X139602011Y-84163294D01*
X139550500Y-84174500D01*
X139471166Y-84174500D01*
X139468262Y-84174775D01*
X139468252Y-84174775D01*
X139447151Y-84176770D01*
X139447150Y-84176770D01*
X139439631Y-84177481D01*
X139368242Y-84202551D01*
X139320557Y-84219296D01*
X139320555Y-84219297D01*
X139311816Y-84222366D01*
X139304363Y-84227871D01*
X139304361Y-84227872D01*
X139232696Y-84280805D01*
X139202850Y-84302850D01*
X139122366Y-84411816D01*
X139119297Y-84420555D01*
X139119296Y-84420557D01*
X139116003Y-84429935D01*
X139077481Y-84539631D01*
X139074500Y-84571166D01*
X139074500Y-85353834D01*
X131200500Y-85353834D01*
X131200500Y-73324500D01*
X131220185Y-73257461D01*
X131272989Y-73211706D01*
X131324500Y-73200500D01*
X162675500Y-73200500D01*
X162742539Y-73220185D01*
G37*
%TD.AperFunction*%
%TD*%
M02*
