%TF.GenerationSoftware,KiCad,Pcbnew,(6.0.7)*%
%TF.CreationDate,2023-01-27T00:41:06-05:00*%
%TF.ProjectId,GettingToBlinky5.0,47657474-696e-4675-946f-426c696e6b79,rev?*%
%TF.SameCoordinates,Original*%
%TF.FileFunction,Copper,L2,Bot*%
%TF.FilePolarity,Positive*%
%FSLAX46Y46*%
G04 Gerber Fmt 4.6, Leading zero omitted, Abs format (unit mm)*
G04 Created by KiCad (PCBNEW (6.0.7)) date 2023-01-27 00:41:06*
%MOMM*%
%LPD*%
G01*
G04 APERTURE LIST*
%TA.AperFunction,SMDPad,CuDef*%
%ADD10R,5.500000X5.500000*%
%TD*%
%TA.AperFunction,SMDPad,CuDef*%
%ADD11R,4.000000X4.000000*%
%TD*%
%TA.AperFunction,ViaPad*%
%ADD12C,0.800000*%
%TD*%
%TA.AperFunction,Conductor*%
%ADD13C,0.250000*%
%TD*%
G04 APERTURE END LIST*
D10*
%TO.P,BT1,1,+*%
%TO.N,/VDD*%
X159800000Y-88000000D03*
X134200000Y-88000000D03*
D11*
%TO.P,BT1,2,-*%
%TO.N,GND*%
X147000000Y-88000000D03*
%TD*%
D12*
%TO.N,/VDD*%
X134200000Y-83700000D03*
X159800000Y-83600000D03*
%TO.N,GND*%
X144600000Y-84000000D03*
X140000000Y-97000000D03*
X140000000Y-83000000D03*
%TD*%
D13*
%TO.N,/VDD*%
X134200000Y-88000000D02*
X134200000Y-83700000D01*
X159800000Y-88000000D02*
X159800000Y-83600000D01*
%TD*%
%TA.AperFunction,Conductor*%
%TO.N,GND*%
G36*
X162742539Y-73220185D02*
G01*
X162788294Y-73272989D01*
X162799500Y-73324500D01*
X162799500Y-84949075D01*
X162779815Y-85016114D01*
X162727011Y-85061869D01*
X162657853Y-85071813D01*
X162634714Y-85065465D01*
X162628231Y-85061133D01*
X162616255Y-85058751D01*
X162616253Y-85058750D01*
X162597674Y-85055055D01*
X162569748Y-85049500D01*
X160249500Y-85049500D01*
X160182461Y-85029815D01*
X160136706Y-84977011D01*
X160125500Y-84925500D01*
X160125500Y-84168299D01*
X160145185Y-84101260D01*
X160174014Y-84069923D01*
X160221835Y-84033229D01*
X160228282Y-84028282D01*
X160324536Y-83902841D01*
X160385044Y-83756762D01*
X160405682Y-83600000D01*
X160385044Y-83443238D01*
X160369068Y-83404667D01*
X160327646Y-83304667D01*
X160324536Y-83297159D01*
X160228282Y-83171718D01*
X160102841Y-83075464D01*
X160095333Y-83072354D01*
X159964271Y-83018066D01*
X159964269Y-83018065D01*
X159956762Y-83014956D01*
X159800000Y-82994318D01*
X159643238Y-83014956D01*
X159635731Y-83018065D01*
X159635729Y-83018066D01*
X159504667Y-83072354D01*
X159497159Y-83075464D01*
X159371718Y-83171718D01*
X159275464Y-83297159D01*
X159272354Y-83304667D01*
X159230933Y-83404667D01*
X159214956Y-83443238D01*
X159194318Y-83600000D01*
X159214956Y-83756762D01*
X159275464Y-83902841D01*
X159371718Y-84028282D01*
X159378165Y-84033229D01*
X159425986Y-84069923D01*
X159467189Y-84126351D01*
X159474500Y-84168299D01*
X159474500Y-84925500D01*
X159454815Y-84992539D01*
X159402011Y-85038294D01*
X159350500Y-85049500D01*
X157030252Y-85049500D01*
X157002326Y-85055055D01*
X156983747Y-85058750D01*
X156983745Y-85058751D01*
X156971769Y-85061133D01*
X156905448Y-85105448D01*
X156861133Y-85171769D01*
X156849500Y-85230252D01*
X156849500Y-90769748D01*
X156861133Y-90828231D01*
X156905448Y-90894552D01*
X156971769Y-90938867D01*
X156983745Y-90941249D01*
X156983747Y-90941250D01*
X157002326Y-90944945D01*
X157030252Y-90950500D01*
X162569748Y-90950500D01*
X162597674Y-90944945D01*
X162616253Y-90941250D01*
X162616255Y-90941249D01*
X162628231Y-90938867D01*
X162632730Y-90935861D01*
X162697518Y-90928895D01*
X162759997Y-90960171D01*
X162795648Y-91020260D01*
X162799500Y-91050925D01*
X162799500Y-103675500D01*
X162779815Y-103742539D01*
X162727011Y-103788294D01*
X162675500Y-103799500D01*
X131324500Y-103799500D01*
X131257461Y-103779815D01*
X131211706Y-103727011D01*
X131200500Y-103675500D01*
X131200500Y-91050925D01*
X131220185Y-90983886D01*
X131272989Y-90938131D01*
X131342147Y-90928187D01*
X131365286Y-90934535D01*
X131371769Y-90938867D01*
X131383745Y-90941249D01*
X131383747Y-90941250D01*
X131402326Y-90944945D01*
X131430252Y-90950500D01*
X136969748Y-90950500D01*
X136997674Y-90944945D01*
X137016253Y-90941250D01*
X137016255Y-90941249D01*
X137028231Y-90938867D01*
X137094552Y-90894552D01*
X137138867Y-90828231D01*
X137150500Y-90769748D01*
X137150500Y-90044726D01*
X144492001Y-90044726D01*
X144492364Y-90051431D01*
X144497908Y-90102477D01*
X144501478Y-90117488D01*
X144546727Y-90238190D01*
X144555126Y-90253532D01*
X144631798Y-90355835D01*
X144644165Y-90368202D01*
X144746468Y-90444874D01*
X144761810Y-90453273D01*
X144882515Y-90498524D01*
X144897518Y-90502091D01*
X144948573Y-90507637D01*
X144955271Y-90508000D01*
X146728170Y-90508000D01*
X146743169Y-90503596D01*
X146744356Y-90502226D01*
X146746000Y-90494668D01*
X146746000Y-90490169D01*
X147254000Y-90490169D01*
X147258404Y-90505168D01*
X147259774Y-90506355D01*
X147267332Y-90507999D01*
X149044726Y-90507999D01*
X149051431Y-90507636D01*
X149102477Y-90502092D01*
X149117488Y-90498522D01*
X149238190Y-90453273D01*
X149253532Y-90444874D01*
X149355835Y-90368202D01*
X149368202Y-90355835D01*
X149444874Y-90253532D01*
X149453273Y-90238190D01*
X149498524Y-90117485D01*
X149502091Y-90102482D01*
X149507637Y-90051427D01*
X149508000Y-90044729D01*
X149508000Y-88271830D01*
X149503596Y-88256831D01*
X149502226Y-88255644D01*
X149494668Y-88254000D01*
X147271830Y-88254000D01*
X147256831Y-88258404D01*
X147255644Y-88259774D01*
X147254000Y-88267332D01*
X147254000Y-90490169D01*
X146746000Y-90490169D01*
X146746000Y-88271830D01*
X146741596Y-88256831D01*
X146740226Y-88255644D01*
X146732668Y-88254000D01*
X144509831Y-88254000D01*
X144494832Y-88258404D01*
X144493645Y-88259774D01*
X144492001Y-88267332D01*
X144492001Y-90044726D01*
X137150500Y-90044726D01*
X137150500Y-87728170D01*
X144492000Y-87728170D01*
X144496404Y-87743169D01*
X144497774Y-87744356D01*
X144505332Y-87746000D01*
X146728170Y-87746000D01*
X146743169Y-87741596D01*
X146744356Y-87740226D01*
X146746000Y-87732668D01*
X146746000Y-87728170D01*
X147254000Y-87728170D01*
X147258404Y-87743169D01*
X147259774Y-87744356D01*
X147267332Y-87746000D01*
X149490169Y-87746000D01*
X149505168Y-87741596D01*
X149506355Y-87740226D01*
X149507999Y-87732668D01*
X149507999Y-85955274D01*
X149507636Y-85948569D01*
X149502092Y-85897523D01*
X149498522Y-85882512D01*
X149453273Y-85761810D01*
X149444874Y-85746468D01*
X149368202Y-85644165D01*
X149355835Y-85631798D01*
X149253532Y-85555126D01*
X149238190Y-85546727D01*
X149117485Y-85501476D01*
X149102482Y-85497909D01*
X149051427Y-85492363D01*
X149044729Y-85492000D01*
X147271830Y-85492000D01*
X147256831Y-85496404D01*
X147255644Y-85497774D01*
X147254000Y-85505332D01*
X147254000Y-87728170D01*
X146746000Y-87728170D01*
X146746000Y-85509831D01*
X146741596Y-85494832D01*
X146740226Y-85493645D01*
X146732668Y-85492001D01*
X144955274Y-85492001D01*
X144948569Y-85492364D01*
X144897523Y-85497908D01*
X144882512Y-85501478D01*
X144761810Y-85546727D01*
X144746468Y-85555126D01*
X144644165Y-85631798D01*
X144631798Y-85644165D01*
X144555126Y-85746468D01*
X144546727Y-85761810D01*
X144501476Y-85882515D01*
X144497909Y-85897518D01*
X144492363Y-85948573D01*
X144492000Y-85955271D01*
X144492000Y-87728170D01*
X137150500Y-87728170D01*
X137150500Y-85230252D01*
X137138867Y-85171769D01*
X137094552Y-85105448D01*
X137028231Y-85061133D01*
X137016255Y-85058751D01*
X137016253Y-85058750D01*
X136997674Y-85055055D01*
X136969748Y-85049500D01*
X134649500Y-85049500D01*
X134582461Y-85029815D01*
X134536706Y-84977011D01*
X134525500Y-84925500D01*
X134525500Y-84268299D01*
X134545185Y-84201260D01*
X134574014Y-84169923D01*
X134576131Y-84168299D01*
X134628282Y-84128282D01*
X134724536Y-84002841D01*
X134763287Y-83909288D01*
X134781934Y-83864271D01*
X134781935Y-83864269D01*
X134785044Y-83856762D01*
X134805682Y-83700000D01*
X134785044Y-83543238D01*
X134724536Y-83397159D01*
X134628282Y-83271718D01*
X134502841Y-83175464D01*
X134495333Y-83172354D01*
X134364271Y-83118066D01*
X134364269Y-83118065D01*
X134356762Y-83114956D01*
X134200000Y-83094318D01*
X134043238Y-83114956D01*
X134035731Y-83118065D01*
X134035729Y-83118066D01*
X133904667Y-83172354D01*
X133897159Y-83175464D01*
X133771718Y-83271718D01*
X133675464Y-83397159D01*
X133614956Y-83543238D01*
X133594318Y-83700000D01*
X133614956Y-83856762D01*
X133618065Y-83864269D01*
X133618066Y-83864271D01*
X133636713Y-83909288D01*
X133675464Y-84002841D01*
X133771718Y-84128282D01*
X133823870Y-84168299D01*
X133825986Y-84169923D01*
X133867189Y-84226351D01*
X133874500Y-84268299D01*
X133874500Y-84925500D01*
X133854815Y-84992539D01*
X133802011Y-85038294D01*
X133750500Y-85049500D01*
X131430252Y-85049500D01*
X131402326Y-85055055D01*
X131383747Y-85058750D01*
X131383745Y-85058751D01*
X131371769Y-85061133D01*
X131367270Y-85064139D01*
X131302482Y-85071105D01*
X131240003Y-85039829D01*
X131204352Y-84979740D01*
X131200500Y-84949075D01*
X131200500Y-73324500D01*
X131220185Y-73257461D01*
X131272989Y-73211706D01*
X131324500Y-73200500D01*
X162675500Y-73200500D01*
X162742539Y-73220185D01*
G37*
%TD.AperFunction*%
%TD*%
M02*
